HIERARCHY
ROOT Hips
{
	OFFSET -0.001795 -0.223333 0.028219
	CHANNELS 6 Xposition Yposition Zposition Zrotation Yrotation Xrotation 
	JOINT LeftUpLeg
	{
		OFFSET 0.069520 -0.091406 -0.006815
		CHANNELS 3 Zrotation Yrotation Xrotation
		JOINT LeftLeg
		{
			OFFSET 0.034277 -0.375199 -0.004496
			CHANNELS 3 Zrotation Yrotation Xrotation
			JOINT LeftFoot
			{
				OFFSET -0.013596 -0.397961 -0.043693
				CHANNELS 3 Zrotation Yrotation Xrotation
				JOINT LeftToe
				{
					OFFSET 0.026358 -0.055791 0.119288
					CHANNELS 3 Zrotation Yrotation Xrotation
					End Site
					{
						OFFSET 0.000000 0.000000 0.000000
					}
				}
			}
		}
	}
	JOINT RightUpLeg
	{
		OFFSET -0.067670 -0.090522 -0.004320
		CHANNELS 3 Zrotation Yrotation Xrotation
		JOINT RightLeg
		{
			OFFSET -0.038290 -0.382569 -0.008850
			CHANNELS 3 Zrotation Yrotation Xrotation
			JOINT RightFoot
			{
				OFFSET 0.015774 -0.398415 -0.042312
				CHANNELS 3 Zrotation Yrotation Xrotation
				JOINT RightToe
				{
					OFFSET -0.025372 -0.048144 0.123348
					CHANNELS 3 Zrotation Yrotation Xrotation
					End Site
					{
						OFFSET 0.000000 0.000000 0.000000
					}
				}
			}
		}
	}
	JOINT Spine
	{
		OFFSET -0.002533 0.108963 -0.026696
		CHANNELS 3 Zrotation Yrotation Xrotation
		JOINT Spine1
		{
			OFFSET 0.005487 0.135180 0.001092
			CHANNELS 3 Zrotation Yrotation Xrotation
			JOINT Spine2
			{
				OFFSET 0.001457 0.052922 0.025425
				CHANNELS 3 Zrotation Yrotation Xrotation
				JOINT Neck
				{
					OFFSET -0.002778 0.213870 -0.042857
					CHANNELS 3 Zrotation Yrotation Xrotation
					JOINT Head
					{
						OFFSET 0.005152 0.064970 0.051349
						CHANNELS 3 Zrotation Yrotation Xrotation
						End Site
						{
							OFFSET 0.000000 0.000000 0.000000
						}
					}
				}
				JOINT LeftShoulder
				{
					OFFSET 0.078845 0.121749 -0.034090
					CHANNELS 3 Zrotation Yrotation Xrotation
					JOINT LeftArm
					{
						OFFSET 0.090977 0.030469 -0.008868
						CHANNELS 3 Zrotation Yrotation Xrotation
						JOINT LeftForeArm
						{
							OFFSET 0.259612 -0.012772 -0.027456
							CHANNELS 3 Zrotation Yrotation Xrotation
							JOINT LeftHand
							{
								OFFSET 0.249234 0.008986 -0.001171
								CHANNELS 3 Zrotation Yrotation Xrotation
								End Site
								{
									OFFSET 0.000000 0.000000 0.000000
								}
							}
						}
					}
				}
				JOINT RightShoulder
				{
					OFFSET -0.081759 0.118833 -0.038615
					CHANNELS 3 Zrotation Yrotation Xrotation
					JOINT RightArm
					{
						OFFSET -0.096012 0.032551 -0.009143
						CHANNELS 3 Zrotation Yrotation Xrotation
						JOINT RightForeArm
						{
							OFFSET -0.253742 -0.013329 -0.021401
							CHANNELS 3 Zrotation Yrotation Xrotation
							JOINT RightHand
							{
								OFFSET -0.255298 0.007772 -0.005559
								CHANNELS 3 Zrotation Yrotation Xrotation
								End Site
								{
									OFFSET 0.000000 0.000000 0.000000
								}
							}
						}
					}
				}
			}
		}
	}
}
MOTION
Frames: 8
Frame Time: 0.050000
-0.953243 0.931188 -1.128324 -8.314582 -41.178543 1.849489 14.331512 2.148646 -2.307733 8.285623 -1.022666 -2.002232 9.906789 14.199608 24.193762 0.000000 0.000000 0.000000 -8.838711 2.066455 -16.956737 10.829965 1.344153 25.122300 -11.513736 -27.524590 21.365807 0.000000 0.000000 0.000000 -0.378918 0.538717 17.644642 0.909987 -0.424770 -1.332560 -8.462220 8.133741 14.489200 13.015387 -8.129441 -19.100337 0.000000 0.000000 0.000000 -29.899731 -9.640483 9.302204 -36.613127 -10.941100 -3.667678 5.798484 -48.216712 0.761404 0.000000 0.000000 0.000000 36.391338 -1.142877 -11.034277 55.002393 -12.143072 -9.992865 25.414224 57.813723 13.592154 0.000000 0.000000 0.000000 
-0.973679 0.927153 -1.140744 -7.972891 -40.996949 0.949414 15.273559 2.273894 -0.409131 9.038699 -0.905360 -3.873016 9.247848 13.260507 25.395760 0.000000 0.000000 0.000000 -10.911441 1.750608 -13.020294 7.922448 1.901166 25.677977 -11.336963 -27.186995 31.264793 0.000000 0.000000 0.000000 -0.321195 0.295725 15.328075 0.691097 -0.328533 -1.219331 -7.823725 8.431831 14.614352 13.021370 -8.234067 -18.559605 0.000000 0.000000 0.000000 -30.376699 -8.709851 8.741858 -36.572804 -10.300437 -3.879996 2.895064 -49.218725 2.134587 0.000000 0.000000 0.000000 35.124958 -2.608721 -11.580662 56.375946 -13.134181 -10.982190 28.066190 56.294008 14.544133 0.000000 0.000000 0.000000 
-0.994737 0.922992 -1.155613 -7.205086 -40.992534 0.244050 15.743168 2.347970 0.498186 10.129328 -0.850749 -4.926758 8.634342 12.328747 27.012233 0.000000 0.000000 0.000000 -13.090324 1.808175 -10.543978 6.886088 2.027440 25.520896 -13.275589 -27.535680 44.670326 0.000000 0.000000 0.000000 -0.696732 0.256034 14.152768 0.725176 -0.355768 -1.315216 -7.866914 8.890453 13.769034 13.053235 -8.286972 -17.827047 0.000000 0.000000 0.000000 -30.648785 -7.725614 7.844532 -36.866376 -9.358267 -4.054625 -0.539036 -50.392190 3.787939 0.000000 0.000000 0.000000 34.426009 -2.616452 -11.097048 57.339113 -13.848982 -11.675556 28.315885 55.960860 14.662372 0.000000 0.000000 0.000000 
-1.015435 0.916574 -1.173453 -6.084515 -40.780004 0.160713 15.801310 2.399413 -1.031073 11.523922 -1.069224 -3.751444 8.048996 11.420791 28.193857 0.000000 0.000000 0.000000 -15.416351 2.087480 -9.708623 8.098282 1.493076 24.007722 -16.535751 -27.235507 57.376747 0.000000 0.000000 0.000000 -0.399382 0.113243 12.730703 0.498559 -0.174960 -0.582444 -8.391129 9.107596 12.796569 13.163948 -8.375362 -17.114755 0.000000 0.000000 0.000000 -31.181690 -7.900398 7.828672 -36.580403 -9.579053 -3.890865 -2.234379 -52.075593 4.721388 0.000000 0.000000 0.000000 35.724952 -1.721181 -10.731866 56.276669 -13.898979 -11.240340 27.919184 56.912356 14.836872 0.000000 0.000000 0.000000 
-1.035749 0.909935 -1.194836 -4.781360 -40.974321 -0.231172 16.412818 2.592387 -1.971752 11.865430 -1.145952 -3.241392 7.460886 10.593070 29.735542 0.000000 0.000000 0.000000 -15.439454 2.098231 -9.435737 8.171101 1.327837 22.875884 -22.160997 -26.296905 70.709538 0.000000 0.000000 0.000000 -0.338416 0.124610 12.924678 1.397978 -0.441934 0.512884 -10.242635 10.205548 11.784078 14.478932 -8.710712 -18.575250 0.000000 0.000000 0.000000 -30.192875 -9.382903 7.900445 -37.858210 -10.746211 -3.327267 0.807517 -52.937567 3.158978 0.000000 0.000000 0.000000 37.261593 -0.087851 -9.062302 55.327854 -11.467539 -9.979003 24.433943 58.216958 13.845449 0.000000 0.000000 0.000000 
-1.055725 0.901028 -1.219531 -3.685456 -39.889407 -0.230334 17.010802 2.879095 -4.921015 12.647384 -1.424435 -1.204577 6.131224 9.108149 30.668391 0.000000 0.000000 0.000000 -15.166857 2.029730 -10.203128 9.842860 1.036130 23.236640 -27.613770 -28.749151 71.588658 0.000000 0.000000 0.000000 -0.345626 0.257197 14.872073 1.121804 -0.255445 1.222877 -9.713582 9.446146 10.752530 14.648569 -8.517374 -19.260906 0.000000 0.000000 0.000000 -32.243778 -11.112976 9.235256 -36.613582 -12.742503 -2.667480 3.829224 -53.739331 1.534026 0.000000 0.000000 0.000000 36.870972 2.056738 -7.248714 54.411183 -9.512046 -8.805782 24.840376 61.012494 14.909014 0.000000 0.000000 0.000000 
-1.075808 0.894932 -1.246750 -2.777759 -39.844449 -0.094225 17.445241 3.148521 -6.512434 14.006499 -1.540296 -0.879300 4.948310 7.861717 33.117904 0.000000 0.000000 0.000000 -14.809950 2.006519 -10.758537 11.676090 0.663879 22.289970 -34.043202 -31.615719 72.042480 0.000000 0.000000 0.000000 0.491301 0.246133 16.226540 1.215448 -0.178100 2.211148 -10.383268 9.205026 10.787433 13.614890 -7.535797 -21.084197 0.000000 0.000000 0.000000 -31.559134 -12.130049 9.735796 -37.504321 -14.927641 -2.022229 8.835094 -55.446914 -0.919631 0.000000 0.000000 0.000000 34.875609 3.961503 -5.263581 56.117508 -7.441556 -8.381672 24.352940 64.602423 15.763627 0.000000 0.000000 0.000000 
-1.095997 0.889599 -1.275902 -2.514226 -39.374472 1.040192 18.380060 3.893067 -10.549445 15.189014 -1.940323 1.899627 3.218330 6.352529 35.185909 0.000000 0.000000 0.000000 -13.832648 2.020446 -14.174269 14.169516 0.503633 24.864067 -38.916460 -33.885626 73.952264 0.000000 0.000000 0.000000 0.828029 0.442474 19.050794 1.775132 -0.332997 3.080717 -10.124155 8.492637 9.424089 12.318383 -6.821377 -20.121422 0.000000 0.000000 0.000000 -33.558609 -13.641687 10.916734 -36.173388 -17.105561 -1.309284 13.986108 -55.831066 -3.793381 0.000000 0.000000 0.000000 34.871870 5.654727 -3.870815 53.953133 -4.896035 -6.718105 23.080849 67.828278 15.962820 0.000000 0.000000 0.000000 
